<svg width="16" height="16" viewBox="0 0 16 16" fill="none" xmlns="http://www.w3.org/2000/svg">
<path d="M8.00001 14.4333C7.79334 14.4333 7.59334 14.4067 7.42668 14.3467C4.88001 13.4733 0.833344 10.3733 0.833344 5.79335C0.833344 3.46001 2.72001 1.56668 5.04001 1.56668C6.16668 1.56668 7.22001 2.00668 8.00001 2.79335C8.78001 2.00668 9.83334 1.56668 10.96 1.56668C13.28 1.56668 15.1667 3.46668 15.1667 5.79335C15.1667 10.38 11.12 13.4733 8.57334 14.3467C8.40668 14.4067 8.20668 14.4333 8.00001 14.4333ZM5.04001 2.56668C3.27334 2.56668 1.83334 4.01335 1.83334 5.79335C1.83334 10.3467 6.21334 12.88 7.75334 13.4067C7.87334 13.4467 8.13334 13.4467 8.25334 13.4067C9.78668 12.88 14.1733 10.3533 14.1733 5.79335C14.1733 4.01335 12.7333 2.56668 10.9667 2.56668C9.95334 2.56668 9.01334 3.04001 8.40668 3.86001C8.22001 4.11335 7.79334 4.11335 7.60668 3.86001C6.98668 3.03335 6.05334 2.56668 5.04001 2.56668Z" fill="#292526"/>
</svg>
