<svg width="20" height="20" viewBox="0 0 20 20" fill="none" xmlns="http://www.w3.org/2000/svg">
<path d="M10.4915 10.9503C10.4289 10.743 10.4054 10.1863 10.3876 9.96159L10.3271 9.31638C10.2839 8.83312 10.3248 8.1905 9.99414 7.79126C9.83617 7.98257 9.75793 8.28835 9.73039 8.52655L9.63463 9.8678C9.5798 10.5794 9.47375 11.2905 9.34212 11.9916L8.85131 14.1492C8.73744 14.5364 8.62623 14.9239 8.51738 15.3126C8.24287 16.2929 8.09357 17.0177 8.01291 18.0326L8.00013 18.3015C7.99373 18.7417 7.88216 18.7417 7.52015 18.7423L6.18636 18.7425C6.06355 18.7424 5.85914 18.7826 5.75382 18.7095L5.74218 18.7013C5.59523 18.6002 5.59601 18.5265 5.5957 18.3652L5.59295 16.6871C5.58925 16.5003 5.56033 16.3049 5.54199 16.1181L5.13109 12.7722L4.97316 10.7521L4.9625 10.2213C4.95652 10.0937 4.93144 9.96757 4.92648 9.84036L4.91736 9.17491C4.91548 9.09931 4.90179 9.02526 4.89908 8.9503L4.92839 6.84812L4.95636 6.55067C5.01283 5.7269 5.11517 5.2538 5.33691 4.45886L5.92578 2.29991L6.05574 1.71571C6.10252 1.50357 6.10259 1.32796 6.34527 1.26107L13.49 1.25774C13.663 1.25831 13.7756 1.26987 13.8596 1.44852L13.8671 1.46495C13.8832 1.49926 13.895 1.53514 13.9016 1.57263L14.9259 5.49978C14.9769 5.66048 14.987 5.84712 15.0048 6.01423L15.0451 6.46495C15.051 6.52524 15.063 6.58509 15.0664 6.64562L15.0829 7.66692L15.0641 10.064C15.0611 10.1504 15.0394 10.2358 15.036 10.3223L15.0236 10.8448C15.0207 10.907 15.0071 10.968 15.003 11.03L14.8608 12.8857L14.4539 16.0297L14.4164 16.6252L14.3973 18.1956C14.3992 18.3893 14.4443 18.5678 14.2651 18.6963L14.2497 18.7073C14.16 18.772 14.0237 18.7419 13.9195 18.7421L12.6031 18.7422C11.9044 18.7416 12.0399 18.6517 11.9952 18.0792L11.8822 17.0362C11.8235 16.572 11.7044 16.1183 11.5806 15.6683L11.1427 14.1212C10.9317 13.3422 10.737 12.5501 10.6065 11.753L10.4915 10.9503ZM7.34295 1.77013L6.55843 1.77398C6.53207 1.83815 6.52363 1.90757 6.50879 1.97501L6.42431 2.37315C6.38953 2.51989 6.33552 2.66841 6.30947 2.81626L12.6245 2.81724L13.6959 2.81462L13.4877 1.94297C13.4758 1.89865 13.4665 1.80237 13.438 1.77294L7.34295 1.77013ZM6.17654 3.32065L5.65588 5.1654C5.71541 5.12314 5.77326 5.08089 5.81836 5.02261C6.13345 4.64552 6.35564 3.82833 6.47738 3.32952L6.17654 3.32065ZM6.99601 3.3186C6.9774 3.42507 6.98402 3.53317 6.96463 3.64038C6.86435 4.19483 6.58699 5.17378 6.13275 5.49444L5.9484 5.6139C5.7509 5.73759 5.56843 5.64655 5.54699 5.76671C5.51543 5.94353 5.51002 6.12593 5.49226 6.30435L5.41097 7.19034L5.41011 9.43429C5.4217 9.68657 5.4465 9.93919 5.45736 10.1905L5.46947 10.6244C5.47332 10.6953 5.48912 10.763 5.49306 10.8334L5.629 12.792C5.63474 12.8479 5.64752 12.9029 5.6522 12.9591L6.05861 16.4259C6.07871 16.6861 6.09882 16.937 6.09927 17.1986L6.10963 18.0235C6.11224 18.0861 6.10384 18.1492 6.11328 18.2109L7.51445 18.2108C7.53933 17.7668 7.55949 17.3133 7.63523 16.8742C7.78603 16.0001 8.04285 15.16 8.28591 14.309L8.71072 12.6222C8.85375 11.9521 8.98031 11.2689 9.05892 10.5882L9.13412 9.75661C9.15816 9.48386 9.17306 9.22808 9.19088 8.9562L9.2115 8.77134C9.24662 8.33997 9.30076 7.95507 9.53687 7.58095C10.0618 6.74925 10.5985 7.59653 10.707 8.17571L10.7528 8.43743C10.7786 8.57056 10.7731 8.71349 10.7865 8.84856L10.9035 10.2633L11.0563 11.4336L11.3721 13.0304L11.579 13.8111L11.6033 13.9102C11.6067 13.9273 11.6118 13.9409 11.6175 13.9572L11.684 14.2112C11.6874 14.2257 11.6917 14.2382 11.6965 14.2522L12.2021 16.0652C12.2531 16.2269 12.2781 16.4066 12.3066 16.5737L12.4661 17.8212C12.4745 17.9499 12.4913 18.0734 12.4933 18.2036C12.522 18.2156 12.5651 18.2099 12.5969 18.2099L12.8657 18.2101C13.2073 18.2102 13.5562 18.2268 13.8969 18.2093L13.8994 17.0775C13.9003 16.7147 13.923 16.384 13.9553 16.0255L14.2949 13.4636L14.5045 11.0301C14.5115 10.9135 14.5317 10.7994 14.5349 10.6822L14.5786 9.54696L14.5978 8.1863L14.5454 6.52538C14.5281 6.25999 14.5148 5.99247 14.4731 5.72952C14.4138 5.70452 14.3438 5.70108 14.2822 5.68202C14.0231 5.60181 13.7666 5.45804 13.5889 5.24888L13.5797 5.23821C13.4355 5.06349 13.3704 4.80854 13.2983 4.59845C13.2622 4.49329 13.2045 4.39731 13.1665 4.29386C13.0517 3.98091 13.016 3.65226 13.0176 3.32081L10.6472 3.33144C10.7394 3.55653 10.7793 3.77624 10.7917 4.02017L10.7918 5.28331C10.7903 5.32108 10.7929 5.38692 10.7741 5.42065L10.7619 5.43833C10.7189 5.50124 10.6787 5.5547 10.6 5.57452C10.2503 5.66251 10.3052 5.22694 10.3086 5.04407L10.311 4.52198C10.3116 4.12851 10.3393 3.65876 10.0306 3.36735C10.0242 3.53851 10.0527 3.71585 10.0577 3.88925C10.0659 4.17581 10.0634 4.46519 10.0333 4.75034L9.99677 4.99226C9.96781 5.19956 9.81986 5.89798 9.50673 5.84575C9.20662 5.79569 9.30857 5.53226 9.37144 5.35048L9.47902 4.98886C9.54121 4.7395 9.57216 4.45321 9.56623 4.19565L9.5331 3.41784C9.53162 3.39019 9.53525 3.35208 9.52257 3.32808L6.99601 3.3186ZM13.5439 3.3195C13.5473 3.63761 13.6554 3.98755 13.7507 4.28722C13.791 4.41415 13.8612 4.52312 13.9148 4.64384C13.9995 4.8344 14.043 5.01065 14.2477 5.11229L14.3386 5.15163L13.8812 3.48853C13.8675 3.4336 13.8604 3.37347 13.8335 3.32358L13.6429 3.31966C13.6147 3.31964 13.5703 3.32603 13.5439 3.3195Z" fill="#292526"/>
</svg>
