<svg width="20" height="20" viewBox="0 0 20 20" fill="none" xmlns="http://www.w3.org/2000/svg">
<path d="M13.3475 16.2188L12.4051 16.4496C11.7895 16.5983 11.153 16.7174 10.5186 16.7471L9.22801 16.7212C8.47346 16.6663 7.957 16.5392 7.22467 16.3612L6.3202 16.1291C6.04272 16.059 5.63102 16.0534 5.55286 15.7103C5.53329 15.6244 5.55301 15.5041 5.55448 15.4154L5.59692 13.9444C5.60284 13.8304 5.62188 13.718 5.62534 13.6035L5.6659 12.5216L5.71254 10.6181C5.71585 10.459 5.73854 10.3012 5.74641 10.1424L5.71864 8.94913C5.68421 8.51272 5.63801 8.10743 5.4471 7.70421C5.39919 7.73143 5.35587 7.7671 5.30917 7.79651C5.03286 7.97063 4.69831 8.04458 4.41005 8.19897C4.13221 8.3478 3.90618 8.61628 3.57881 8.65425L3.56446 8.65581C3.19182 8.70038 2.87046 8.32844 2.66311 8.06911C2.2402 7.5401 1.65306 6.47579 2.09854 5.80864C2.24415 5.59061 2.53637 5.46352 2.75538 5.3313L3.64579 4.79766L4.37372 4.28796C5.0861 3.74251 5.28946 3.58413 6.24024 3.43583L7.43307 3.262C7.53907 3.2452 7.64333 3.23704 7.74901 3.2153C8.16528 3.16882 8.41512 3.46132 8.51508 3.8379C8.69532 4.51684 9.53229 4.85962 10.1955 4.80848C10.7391 4.76657 11.2419 4.39337 11.4659 3.90051C11.5066 3.81104 11.5192 3.71528 11.5539 3.62483C11.7029 3.23737 12.0225 3.18696 12.371 3.24032L13.7427 3.43362C14.6716 3.58083 14.9307 3.74512 15.6937 4.33634L17.1059 5.24903C17.4214 5.4326 17.8133 5.58944 17.9748 5.94262C18.2376 6.51772 17.8547 7.34372 17.5308 7.81051C17.3001 8.14301 16.9694 8.57948 16.5459 8.65167C16.2803 8.69696 16.0587 8.50323 15.8597 8.35893C15.4485 8.06085 14.9384 7.98518 14.5407 7.70376C14.3813 8.02676 14.2841 8.65053 14.26 9.0002C14.2439 9.23364 14.2471 9.46835 14.2469 9.70221L14.2541 10.401L14.2973 11.4844C14.2989 11.5743 14.3149 11.6634 14.3177 11.7533L14.3782 13.9014L14.4168 14.6289C14.42 14.7177 14.4378 14.8046 14.4424 14.8926L14.4456 15.2948C14.4505 15.5745 14.5228 15.9116 14.1668 16.0152L13.3475 16.2188ZM7.83182 3.81348C7.81901 3.87108 7.83434 3.93405 7.8461 3.991L7.89407 4.20594C7.8979 4.22497 7.90393 4.23966 7.91046 4.25782L7.9335 4.33286C7.95745 4.4161 8.00889 4.51641 8.04622 4.59473C8.50338 5.55385 9.39264 6.35977 10.5303 6.01399C11.1405 5.82856 11.5763 5.29819 11.8627 4.75413L12.0236 4.39202C12.0611 4.28466 12.1819 3.93567 12.1504 3.82325L12.1324 3.81251C12.0854 3.85491 12.0676 3.98055 12.0438 4.0426C11.3294 5.90696 8.59135 5.84503 7.90936 3.93212C7.89569 3.89376 7.88485 3.84268 7.85725 3.81262L7.83182 3.81348ZM12.75 3.88466C12.7159 4.06253 12.6934 4.2393 12.6416 4.41372C12.2576 5.70575 11.0415 6.93372 9.60557 6.65057L9.55053 6.63835C9.44479 6.61313 9.33956 6.59489 9.23639 6.5585C8.13526 6.17012 7.38495 5.02444 7.24579 3.89665L6.42499 4.01014C5.55012 4.13596 5.4185 4.22676 4.69594 4.78018L4.18602 5.14764L2.71733 6.0421C2.63745 6.08934 2.58917 6.10257 2.55665 6.19141L2.55188 6.20387C2.3593 6.72567 3.12446 7.81262 3.51825 8.08301C3.69973 7.95741 3.86692 7.82167 4.06251 7.71606C4.37219 7.54882 4.70526 7.44116 5.01942 7.28602C5.13706 7.22794 5.23921 7.14928 5.35163 7.08278L5.59565 5.78305C5.6296 5.54895 5.67692 5.2318 5.99133 5.28243C6.08786 5.29798 6.16239 5.38333 6.19772 5.47001L6.20219 5.48057C6.25741 5.62397 6.167 5.9235 6.14219 6.07104L5.92067 7.18257C5.90245 7.25714 5.91936 7.26645 5.94557 7.33887L6.22536 8.22864C6.30563 8.48837 6.32495 9.13532 6.32782 9.4319L6.31962 10.6999C6.31614 10.8048 6.29358 10.9065 6.29077 11.0121L6.27422 11.9106L6.21694 13.3301C6.19608 13.7268 6.19471 14.1431 6.16169 14.5307L6.13143 15.4773C6.18065 15.5103 6.23014 15.5104 6.28579 15.5225L6.94825 15.6855C7.64684 15.8626 8.3328 16.0376 9.05028 16.1115L9.26364 16.139C10.045 16.2085 10.9528 16.1559 11.7139 16.0066L13.7296 15.5164C13.7777 15.5046 13.8272 15.4994 13.8722 15.4778L13.8009 13.9567L13.7926 13.4393L13.7157 11.919L13.71 11.0683C13.7069 10.9055 13.6829 10.747 13.6756 10.5856L13.6705 9.64934C13.6715 8.86216 13.6982 8.22247 14.0014 7.46639L14.0649 7.31862C14.0932 7.256 14.0947 7.25118 14.081 7.18518L13.8195 5.89333C13.6618 5.09587 14.2451 5.17647 14.3465 5.50782L14.3515 5.52266C14.3921 5.64704 14.3908 5.79005 14.4171 5.91764L14.6324 6.96956C14.6845 7.26591 15.2586 7.40143 15.5162 7.51272C15.8635 7.66278 16.1739 7.84989 16.4754 8.07782C16.9238 7.71825 17.6938 6.73438 17.4121 6.11591C17.2856 6.02653 17.1416 5.95565 17.0078 5.87669L15.247 4.74112C15.1702 4.68553 15.1012 4.6188 15.026 4.56098C14.5788 4.21743 14.2437 4.10505 13.7025 4.02606L13.2031 3.94509C13.0538 3.92497 12.8975 3.91407 12.75 3.88466Z" fill="#292526"/>
<path d="M10.0952 9.56038L9.56 9.67046C9.52875 9.74579 9.51221 9.83321 9.49061 9.91204L9.22528 11.0937L9.04436 12.4589C8.99694 12.7762 8.42994 12.9678 8.47379 12.2217L8.65018 10.8691L8.86651 9.87415L8.5961 9.92544C8.32559 9.98264 8.0516 9.90553 8.15711 9.56198L8.16225 9.54583C8.23102 9.3238 8.52457 9.30907 8.71785 9.26092L10.7909 8.82676C10.9781 8.7926 11.1635 8.74571 11.353 8.72417C11.4842 8.73048 11.5758 8.78825 11.6329 8.91012L11.6516 8.95134C11.668 8.9944 11.6656 9.05936 11.6464 9.10046L11.6411 9.11126C11.562 9.28612 11.4211 9.45296 11.3104 9.61051L11.0406 10.0153C10.975 10.1151 10.896 10.2255 10.8546 10.338C11.0621 10.3022 11.3032 10.5109 11.2164 10.7239L11.2106 10.7372C11.1127 10.9722 10.8244 10.9716 10.6087 10.9945C10.5613 11.1171 10.5276 11.2457 10.4923 11.3722L10.3105 12.1449C10.29 12.25 10.289 12.3674 10.264 12.4682C10.1672 12.8577 9.70557 12.7666 9.68364 12.5159L9.68289 12.5048C9.6626 12.3189 9.69213 12.126 9.7243 11.9433L9.90619 11.1353C9.79436 11.1613 9.60465 11.2103 9.49905 11.1517C9.32922 11.0574 9.33477 10.8415 9.42932 10.6929C9.50034 10.5813 9.6608 10.5693 9.77846 10.5407L10.0922 10.4642L10.6808 9.43688L10.0952 9.56038Z" fill="#292526"/>
</svg>
